<svg width="59" height="59" viewBox="0 0 59 59" fill="none" xmlns="http://www.w3.org/2000/svg">
<path d="M23.7026 13.818C25.1781 13.1992 25.7968 11.4382 25.1305 10.0103L22.7983 5.10798C22.132 3.72819 20.5137 3.10897 19.0858 3.72819C15.0402 5.44163 11.5657 7.67862 8.80519 10.3916C5.4259 13.58 3.14131 17.2449 1.90382 21.2905C0.666339 25.3842 0 30.9524 0 38.0442V52.656C0 54.2267 1.28508 55.5117 2.85574 55.5117H21.5608C23.1315 55.5117 24.4165 54.2267 24.4165 52.656V33.9509C24.4165 32.3798 23.1315 31.0952 21.5608 31.0952H12.6128C12.708 26.2876 13.8503 22.4328 15.9445 19.529C17.658 17.1977 20.2281 15.2939 23.7026 13.818Z" fill="#1374F6"/>
<path d="M57.305 13.818C58.7805 13.1992 59.3987 11.4382 58.7329 10.0103L56.4007 5.15604C55.7344 3.77577 54.1161 3.15702 52.6882 3.77577C48.6902 5.48921 45.2628 7.7262 42.4552 10.3916C39.0754 13.6281 36.7437 17.2929 35.5057 21.3385C34.2683 25.3361 33.65 30.9053 33.65 38.0446V52.6565C33.65 54.2271 34.9351 55.5122 36.5057 55.5122H55.2108C56.7815 55.5122 58.0665 54.2271 58.0665 52.6565V33.9514C58.0665 32.3803 56.7815 31.0956 55.2108 31.0956H46.2152C46.3104 26.288 47.4532 22.4332 49.5469 19.5294C51.2604 17.1977 53.8305 15.2939 57.305 13.818Z" fill="#1374F6"/>
</svg>
